<?xml version="1.0" standalone="no"?>
<!DOCTYPE svg PUBLIC "-//W3C//DTD SVG 20010904//EN"
 "http://www.w3.org/TR/2001/REC-SVG-20010904/DTD/svg10.dtd">
<svg version="1.0" xmlns="http://www.w3.org/2000/svg"
 width="1000.000000pt" height="1000.000000pt" viewBox="0 0 1000.000000 1000.000000"
 preserveAspectRatio="xMidYMid meet">

<g transform="translate(0.000000,1000.000000) scale(0.100000,-0.100000)"
fill="#000000" stroke="none">
<path d="M3226 9009 c-3 -13 -8 -60 -10 -104 -3 -44 -10 -118 -15 -165 -6 -47
-15 -134 -20 -195 -12 -124 -25 -249 -40 -375 -18 -150 -21 -183 -31 -270 -6
-47 -17 -166 -25 -265 -9 -99 -20 -205 -25 -235 -15 -94 -39 -313 -65 -615
-15 -159 -35 -375 -46 -480 -14 -144 -19 -266 -19 -515 -1 -361 -14 -944 -31
-1380 -11 -283 -14 -2199 -3 -2209 3 -3 18 9 32 26 32 39 90 83 109 83 8 0 16
-8 20 -17 3 -10 15 -25 26 -34 31 -25 30 -131 -1 -180 -12 -20 -22 -45 -22
-56 0 -37 -73 -83 -132 -83 l-30 0 6 -250 c6 -248 24 -429 45 -469 10 -17 21
-21 66 -21 29 0 56 -4 59 -9 3 -4 34 -14 68 -21 57 -11 61 -13 43 -26 -10 -8
-29 -14 -41 -14 -13 0 -28 -8 -33 -17 -10 -17 -10 -17 -11 -1 0 15 -4 16 -25
6 -14 -6 -25 -14 -25 -18 0 -10 113 -27 290 -45 437 -43 818 -76 930 -80 69
-3 143 -9 165 -15 67 -16 792 -92 1060 -110 88 -6 198 -15 245 -20 99 -10 100
-9 280 108 181 118 247 170 285 227 19 30 35 58 35 64 0 13 -20 14 -39 2 -9
-6 -21 -3 -35 11 l-21 20 50 43 c28 24 66 52 85 62 19 10 47 37 63 60 25 35
30 54 38 144 17 212 30 821 28 1404 -1 357 3 659 10 745 18 239 14 624 -10
885 -33 377 -38 426 -50 510 -7 44 -12 105 -11 135 7 184 0 309 -49 910 -6 69
-10 149 -10 178 0 28 0 66 0 82 0 117 1 160 10 280 31 457 31 477 21 625 -10
144 -16 203 -40 380 -17 129 -32 267 -34 315 -1 44 0 45 29 45 29 0 30 2 27
40 -4 62 1 67 49 50 30 -11 45 -12 49 -5 4 6 -4 43 -17 83 -23 70 -27 84 -53
177 -7 25 -16 56 -20 70 -5 14 -14 47 -21 73 -12 41 -17 47 -34 42 -45 -14
-48 -12 -53 45 -10 104 -7 141 11 155 10 7 15 19 11 29 -4 11 -1 16 10 16 25
0 19 16 -14 40 -21 15 -30 30 -30 49 0 64 59 60 -850 66 -806 6 -1617 18
-2012 31 l-197 7 -5 -24z m1374 -587 c184 -6 493 -13 685 -17 193 -3 380 -11
417 -16 82 -13 124 -39 155 -98 28 -54 29 -85 4 -346 -11 -110 -22 -227 -25
-260 -3 -33 -15 -126 -26 -208 -27 -199 -53 -248 -160 -305 -23 -13 -215 -36
-229 -28 -7 4 -481 16 -691 17 -80 0 -188 5 -240 10 -52 5 -144 11 -205 13
-60 3 -132 7 -160 10 -27 4 -90 8 -140 11 -310 14 -376 22 -433 52 -78 40
-106 93 -107 210 -1 46 2 86 6 89 10 6 23 -72 14 -86 -3 -6 1 -36 10 -68 19
-64 80 -132 118 -132 13 0 27 -4 33 -9 5 -5 56 -12 114 -15 58 -4 166 -11 240
-16 74 -5 176 -12 225 -15 50 -2 160 -9 245 -15 144 -9 804 -25 1020 -24 148
0 198 21 256 106 35 52 40 79 78 403 53 456 56 525 26 585 -24 46 -60 73 -120
88 -25 6 -185 14 -365 17 -470 9 -941 22 -1270 34 -159 6 -308 8 -330 5 -91
-13 -147 -65 -181 -167 -23 -71 -38 -85 -30 -27 14 95 67 170 146 207 28 13
356 11 920 -5z m-525 -67 c83 -3 308 -10 500 -15 193 -6 393 -12 445 -15 52
-2 234 -7 404 -11 l309 -7 37 -37 c42 -42 56 -95 41 -162 -5 -24 -14 -108 -21
-188 -10 -129 -26 -281 -36 -333 -2 -10 -8 -64 -14 -119 -6 -56 -18 -118 -27
-140 -21 -53 -85 -106 -137 -113 -62 -10 -963 13 -1246 30 -135 9 -349 24
-476 34 -255 19 -278 26 -321 91 -27 39 -29 81 -9 183 8 40 24 162 35 272 12
110 26 230 31 267 6 37 10 84 10 105 0 60 42 120 108 154 31 17 51 19 127 14
50 -2 158 -7 240 -10z m-588 -507 c-3 -7 -5 -2 -5 12 0 14 2 19 5 13 2 -7 2
-19 0 -25z m1223 -858 c11 -11 20 -27 20 -36 0 -12 -6 -15 -20 -10 -68 21 -64
22 -57 -17 5 -30 2 -37 -14 -42 -26 -8 -25 -51 1 -65 20 -11 20 -11 -5 -44
-30 -40 -31 -46 -5 -46 10 0 24 10 31 23 6 12 27 38 46 59 21 21 32 41 28 48
-5 8 -12 5 -22 -9 -8 -12 -21 -21 -30 -21 -13 0 -12 4 6 24 20 21 21 25 7 39
-17 17 -21 37 -8 37 5 0 12 -3 16 -7 4 -5 18 -8 29 -8 16 0 22 -6 22 -22 1
-32 10 -36 47 -23 29 11 40 9 91 -14 31 -15 57 -29 57 -32 0 -2 -7 -15 -15
-27 -8 -12 -21 -54 -29 -92 -8 -41 -22 -76 -33 -85 -43 -36 -52 -234 -13 -310
14 -28 17 -41 8 -46 -6 -4 -17 1 -24 11 -11 14 -16 16 -28 6 -9 -8 -16 -8 -20
-2 -4 5 1 14 10 19 15 9 16 15 4 56 -7 25 -16 46 -19 46 -4 0 -15 -13 -24 -30
-25 -42 -75 -76 -90 -61 -9 9 -2 20 31 47 23 20 42 40 42 44 0 5 -21 29 -47
54 -35 33 -55 45 -73 44 -17 -2 -25 -9 -25 -23 0 -11 -4 -26 -8 -33 -14 -21
-29 -1 -23 30 5 24 1 31 -19 40 -35 16 -47 1 -48 -61 -1 -48 2 -54 46 -99 26
-26 47 -53 47 -59 0 -29 -24 -22 -57 16 -19 23 -55 53 -79 67 -40 24 -44 29
-44 66 0 37 -2 40 -22 34 -13 -3 -33 -6 -45 -6 -16 0 -24 -8 -29 -27 -12 -59
-46 -113 -71 -113 -20 0 -16 19 12 52 20 23 25 41 25 81 0 44 4 54 31 77 28
23 30 29 20 48 -8 15 -10 39 -5 69 5 36 4 45 -7 41 -8 -3 -16 -20 -20 -39 -7
-45 -16 -58 -44 -69 -13 -5 -32 -21 -42 -36 -17 -26 -17 -27 5 -42 32 -21 28
-42 -8 -42 -37 0 -56 27 -64 95 -7 60 5 83 55 99 18 6 39 22 45 35 17 34 32
41 88 41 50 0 96 27 96 55 0 6 18 31 40 55 22 24 40 49 40 55 0 17 26 38 90
73 66 37 74 38 100 12z m-930 -724 c37 -11 46 -18 48 -40 4 -29 -17 -36 -38
-12 -6 8 -35 20 -63 26 -70 16 -118 -4 -147 -60 -27 -52 -25 -104 4 -154 26
-44 51 -61 104 -70 55 -9 72 6 72 67 0 60 10 80 36 75 17 -3 19 -11 16 -73 -5
-91 -14 -100 -100 -100 -80 0 -131 22 -170 73 -23 30 -27 45 -27 102 0 58 4
72 28 103 54 71 137 93 237 63z m408 -43 c109 -81 88 -249 -39 -313 -71 -37
-143 -20 -197 46 -29 34 -32 46 -32 102 0 35 6 75 14 90 15 29 58 72 91 91 29
17 132 7 163 -16z m353 -12 c81 -26 116 -108 89 -205 -14 -52 -46 -89 -102
-117 -35 -18 -53 -21 -107 -15 -83 7 -91 16 -80 86 5 30 13 97 19 149 5 51 14
99 20 106 12 15 112 13 161 -4z m262 -8 c2 -5 0 -42 -5 -83 -5 -41 -13 -115
-16 -165 -7 -88 -8 -90 -32 -90 -22 0 -25 4 -24 35 1 39 22 244 28 275 3 11 5
23 5 28 1 4 10 7 20 7 11 0 22 -3 24 -7z m192 -130 c17 -68 34 -121 39 -120 5
2 33 54 62 117 39 84 58 115 71 115 10 0 17 -6 15 -14 -8 -38 -157 -321 -168
-321 -8 0 -16 12 -20 28 -13 54 -54 208 -69 257 -20 66 -19 67 13 63 26 -3 28
-8 57 -125z m390 -55 c22 -89 41 -168 43 -175 2 -8 -6 -13 -22 -13 -21 0 -27
6 -36 43 -20 78 -26 87 -64 87 -37 0 -53 -17 -76 -82 -14 -39 -37 -57 -46 -35
-3 8 13 51 34 98 21 46 54 119 73 161 19 43 39 78 44 78 6 0 28 -73 50 -162z
m-1315 -230 c0 -7 -11 -35 -25 -62 -25 -51 -25 -69 0 -59 9 3 15 18 15 34 0
16 5 29 10 29 6 0 10 14 10 30 0 17 5 30 10 30 18 0 23 -30 10 -56 -18 -33 -3
-45 20 -16 14 17 25 21 44 16 21 -5 26 -3 26 13 0 20 18 43 33 43 5 0 6 -15 3
-34 l-7 -35 35 6 c19 3 43 3 52 -1 15 -6 15 -8 0 -31 -9 -13 -12 -26 -7 -30 5
-3 13 0 16 6 4 5 13 8 21 5 11 -4 12 -1 6 12 -10 19 -5 42 9 42 5 0 9 -7 9
-16 0 -14 3 -14 15 -4 21 17 32 4 17 -20 -7 -11 -12 -29 -12 -40 0 -15 -7 -20
-29 -20 -17 0 -33 5 -36 10 -10 16 -24 12 -49 -15 -21 -22 -25 -23 -36 -10
-16 20 -31 19 -23 -1 4 -12 1 -15 -12 -13 -28 6 -28 23 0 53 26 28 32 46 15
46 -6 0 -15 -11 -20 -24 -10 -26 -28 -42 -37 -32 -4 3 -1 17 5 31 10 22 9 25
-7 25 -19 0 -35 -25 -26 -40 9 -15 -15 -22 -31 -9 -11 9 -18 9 -26 1 -16 -16
-88 -16 -88 1 0 6 11 33 24 58 12 26 26 56 29 68 5 22 37 30 37 9z m270 -13
c0 -8 -7 -15 -15 -15 -8 0 -15 7 -15 15 0 8 7 15 15 15 8 0 15 -7 15 -15z
m315 -35 c-3 -11 -4 -20 0 -20 3 0 15 9 27 20 26 24 41 25 57 6 18 -21 3 -62
-36 -102 -24 -25 -38 -33 -45 -26 -8 8 -6 16 6 27 14 15 15 19 3 29 -8 6 -17
18 -19 26 -3 9 -11 -3 -18 -28 -15 -48 -36 -70 -51 -55 -6 6 -3 23 10 49 11
21 24 51 30 67 12 32 46 39 36 7z m159 14 c35 -13 0 -84 -41 -84 -14 0 -13 3
5 23 14 15 19 30 15 45 -6 24 -3 25 21 16z m101 -13 c3 -6 -2 -14 -12 -19 -15
-9 -16 -13 -3 -36 12 -24 11 -29 -7 -54 -25 -34 -58 -40 -72 -13 -14 26 -5 48
37 94 38 39 47 43 57 28z m-385 -35 c0 -23 -30 -86 -40 -86 -6 0 -10 10 -10
23 -1 20 -2 20 -11 5 -13 -24 -29 -23 -29 2 0 11 5 20 10 20 6 0 10 5 10 12 0
6 -9 3 -20 -7 -11 -10 -20 -24 -20 -32 0 -7 -4 -13 -9 -13 -18 0 -20 17 -6 36
8 10 15 27 15 37 0 14 9 17 55 17 40 0 55 -4 55 -14z m253 -76 c16 0 17 -3 7
-15 -7 -8 -25 -15 -41 -15 -22 0 -29 5 -29 19 0 22 20 33 35 20 5 -5 18 -9 28
-9z m-1232 -335 c35 -19 28 -39 -11 -32 -35 7 -70 -17 -70 -48 0 -27 32 -50
57 -41 14 6 14 8 -1 24 -24 27 -20 34 16 30 39 -4 47 -27 24 -63 -35 -53 -136
-13 -136 52 1 31 13 51 50 76 30 21 33 21 71 2z m152 -14 c36 -14 42 -40 17
-74 -20 -27 -21 -30 -5 -47 9 -10 14 -24 10 -29 -9 -15 -42 4 -50 29 -9 27
-24 25 -35 -5 -10 -26 -24 -32 -35 -15 -6 9 12 127 21 142 7 11 48 10 77 -1z
m177 -21 c26 -26 26 -80 -1 -114 -29 -36 -83 -33 -112 6 -18 24 -19 30 -7 60
25 66 80 88 120 48z m95 0 c3 -5 1 -28 -5 -51 -10 -34 -9 -44 3 -57 26 -26 44
-7 52 53 5 44 10 56 23 53 13 -3 16 -13 13 -53 -4 -68 -22 -95 -66 -95 -50 0
-66 29 -58 103 5 54 21 74 38 47z m178 -43 c22 -46 37 -47 37 -3 0 37 15 55
32 38 15 -15 -11 -152 -29 -152 -7 0 -20 18 -29 40 -20 49 -43 53 -35 6 6 -32
-28 -61 -43 -37 -5 8 9 102 20 139 7 22 28 8 47 -31z m191 23 c14 -5 32 -23
41 -40 14 -26 14 -33 1 -58 -22 -43 -40 -54 -88 -50 l-43 3 1 61 c0 34 4 69 7
78 7 18 43 21 81 6z m256 -15 c17 -9 30 -20 30 -25 0 -17 -22 -22 -46 -10 -30
17 -54 -1 -54 -40 0 -36 22 -55 48 -41 25 13 47 -6 31 -26 -18 -21 -73 -16
-96 10 -43 47 -36 93 19 127 39 24 33 23 68 5z m177 -27 c35 -32 31 -82 -8
-119 -17 -16 -39 -29 -48 -29 -30 0 -71 43 -78 82 -4 30 -1 41 20 62 33 33 82
35 114 4z m168 -8 c0 -11 -11 -15 -40 -15 -51 0 -57 -28 -7 -33 46 -5 43 -32
-3 -32 -32 0 -35 -2 -35 -30 0 -19 -5 -30 -14 -30 -24 0 -27 16 -15 90 l12 71
51 -3 c37 -2 51 -7 51 -18z m139 2 c10 -16 -12 -34 -39 -30 -39 4 -43 -18 -5
-26 23 -4 31 -11 28 -23 -2 -10 -12 -18 -23 -19 -40 -2 -44 -4 -47 -26 -2 -13
-10 -23 -18 -23 -12 0 -14 12 -11 60 4 84 12 95 66 95 24 0 46 -4 49 -8z m114
-2 c13 0 22 -6 22 -15 0 -11 -11 -15 -40 -15 -47 0 -58 -27 -12 -32 36 -4 36
-32 -1 -36 -37 -5 -29 -26 11 -30 20 -2 32 -9 32 -18 0 -12 -11 -14 -52 -12
l-53 3 2 63 c3 78 17 106 46 98 12 -3 32 -6 45 -6z m162 -27 c0 -11 -10 -14
-37 -11 -47 4 -54 -24 -9 -32 45 -8 45 -30 1 -30 -29 0 -36 -3 -33 -17 2 -12
14 -19 36 -21 51 -5 42 -32 -10 -32 -66 0 -71 8 -66 85 2 36 9 69 15 73 21 13
103 1 103 -15z m-1320 -180 c0 -7 7 -13 15 -13 19 0 20 28 0 32 -10 2 -12 7
-5 18 9 13 12 12 25 -5 13 -17 18 -18 36 -7 14 9 24 10 33 3 7 -6 22 -8 34 -4
27 7 62 -21 62 -49 0 -25 -40 -24 -47 2 -3 11 -9 20 -13 20 -4 0 -15 -9 -25
-20 -22 -25 -34 -25 -51 -2 -12 16 -14 16 -28 -3 -12 -16 -17 -18 -27 -7 -7 6
-21 12 -30 12 -11 0 -18 10 -21 30 -3 17 -2 32 0 35 8 8 42 -26 42 -42z m300
-20 c0 -19 -5 -23 -30 -23 -29 0 -30 2 -19 23 22 41 31 50 40 35 5 -7 9 -23 9
-35z m80 2 c0 -31 -2 -33 -32 -30 -18 1 -32 6 -30 11 11 40 16 50 25 56 20 12
37 -4 37 -37z m77 -1 c14 -29 8 -48 -10 -37 -7 4 -20 6 -29 5 -22 -4 -23 7 -2
36 20 28 26 28 41 -4z m78 6 l18 -20 34 20 c19 11 38 20 44 20 18 0 9 -28 -11
-33 -23 -6 -27 -27 -6 -27 21 0 30 -19 12 -26 -9 -3 -28 4 -42 15 -15 12 -30
17 -33 12 -9 -13 -58 -24 -64 -14 -9 15 5 73 18 73 6 0 20 -9 30 -20z m183
-30 c11 -31 2 -47 -20 -33 -7 4 -21 6 -32 4 -18 -3 -18 -2 0 28 23 39 39 39
52 1z m-995 -400 c7 -26 23 -26 37 0 17 33 30 13 30 -46 0 -41 -4 -54 -15 -54
-8 0 -15 8 -15 19 0 10 -9 21 -19 24 -24 6 -31 0 -31 -25 0 -10 -7 -18 -15
-18 -12 0 -15 13 -15 60 0 52 2 60 19 60 10 0 21 -9 24 -20z m158 10 c18 0 8
-18 -13 -24 l-23 -7 23 -9 c24 -10 22 -30 -4 -30 -21 0 -17 -17 6 -23 11 -3
20 -13 20 -22 0 -14 -6 -16 -32 -11 -41 8 -48 21 -41 76 6 47 19 63 41 55 8
-3 18 -5 23 -5z m117 -16 c16 -11 22 -25 22 -50 0 -46 -21 -66 -62 -62 -32 3
-33 5 -36 52 -2 27 -1 55 2 62 7 19 46 18 74 -2z m76 -17 c0 -9 -1 -35 -2 -57
-2 -28 -6 -40 -17 -40 -11 0 -15 12 -15 44 0 24 3 52 6 61 8 20 29 14 28 -8z
m53 -23 c0 -16 2 -35 2 -42 2 -29 26 -3 31 33 8 58 30 57 30 -1 0 -48 -20 -84
-46 -84 -19 0 -54 49 -54 76 0 56 34 73 37 18z m124 4 l12 -22 17 22 c30 36
40 27 40 -38 0 -47 -3 -60 -15 -60 -9 0 -15 9 -15 24 0 19 -5 24 -25 22 -19
-1 -25 -7 -25 -23 0 -13 -6 -23 -14 -23 -12 0 -15 14 -15 60 1 65 17 81 40 38z
m223 -4 c19 -19 20 -36 4 -52 -10 -10 -10 -17 0 -32 18 -30 -7 -38 -29 -9 -16
21 -18 22 -24 6 -4 -9 -13 -17 -21 -17 -10 0 -14 14 -14 53 0 30 3 57 7 60 12
13 62 7 77 -9z m122 -10 c20 -19 24 -31 20 -52 -7 -27 -39 -62 -58 -62 -17 0
-58 49 -58 70 0 22 41 70 60 70 6 0 22 -11 36 -26z m110 -31 c9 -21 21 -46 26
-57 15 -28 -5 -40 -27 -16 -22 25 -34 25 -51 3 -8 -12 -16 -15 -22 -8 -11 11
33 115 49 115 5 0 17 -17 25 -37z m108 31 c9 -3 16 -12 16 -20 0 -10 -8 -13
-27 -9 -28 6 -28 6 7 -25 28 -25 33 -33 24 -48 -14 -22 -69 -28 -77 -8 -8 21
10 31 28 16 12 -10 15 -10 15 0 0 7 -11 21 -25 32 -29 23 -31 31 -9 52 17 18
24 19 48 10z m133 -21 c2 -6 -5 -14 -16 -18 -17 -5 -21 -15 -21 -46 0 -28 -4
-39 -15 -39 -11 0 -15 11 -15 39 0 22 -6 44 -15 51 -8 7 -15 17 -15 22 0 13
93 5 97 -9z m-433 -285 c30 -42 18 -98 -21 -98 -18 0 -28 9 -38 35 -28 65 21
117 59 63z m194 -24 c44 -31 17 -127 -48 -171 -40 -28 -67 -29 -98 -5 -20 15
-23 24 -17 54 9 50 39 95 77 118 40 24 57 25 86 4z m-624 -57 c28 -38 34 -142
12 -201 -23 -60 -54 -87 -96 -83 -51 4 -80 51 -80 132 0 75 14 121 49 158 34
37 85 35 115 -6z m-230 -28 c29 -34 34 -70 11 -89 -20 -17 -49 -5 -84 36 -36
41 -39 67 -9 88 25 18 44 10 82 -35z m593 -28 c66 -41 53 -171 -24 -242 -39
-37 -63 -42 -92 -19 -54 45 -44 165 21 244 34 41 50 44 95 17z m-209 -23 c18
-18 15 -93 -4 -109 -38 -31 -81 49 -50 96 18 27 35 32 54 13z m-479 -53 c84
-67 141 -182 141 -286 0 -52 -3 -62 -20 -66 -11 -3 -20 -11 -20 -19 0 -24 -34
-34 -76 -21 -50 15 -115 82 -151 155 -39 79 -45 196 -13 242 31 43 80 42 139
-5z m1138 -6 c81 -30 173 -178 173 -279 0 -60 -8 -76 -54 -104 -24 -15 -34
-16 -70 -6 -70 20 -149 107 -185 203 -32 86 -28 128 14 171 36 37 55 39 122
15z m-1731 -71 c51 -35 82 -85 94 -148 8 -43 5 -49 -27 -67 -37 -21 -67 -15
-112 23 -69 60 -101 141 -75 193 21 41 57 41 120 -1z m298 -14 c34 -34 14
-134 -38 -185 -38 -38 -69 -41 -101 -11 -24 22 -27 30 -21 69 8 59 34 107 75
137 35 26 51 25 85 -10z m1090 -37 c25 -33 56 -97 56 -117 0 -26 -23 -6 -40
36 -11 25 -29 57 -40 71 -11 14 -20 30 -20 34 0 19 20 8 44 -24z m718 -54 c23
-21 23 -50 -2 -91 -19 -31 -71 -62 -104 -62 -7 0 -22 12 -31 27 -17 26 -17 28
1 62 20 37 76 81 102 81 9 0 24 -7 34 -17z m-1068 -15 c32 -46 11 -140 -28
-125 -22 9 -48 70 -39 94 8 22 33 53 44 53 4 0 15 -10 23 -22z m-123 -78 c29
-16 51 -78 43 -125 -12 -73 -55 -97 -92 -50 -34 44 -44 23 -16 -34 10 -20 13
-42 9 -61 -8 -35 4 -39 25 -9 22 31 52 59 65 59 6 0 21 -7 33 -16 19 -13 22
-24 22 -83 0 -55 -4 -74 -21 -95 -19 -24 -20 -32 -11 -64 6 -20 14 -49 17 -64
3 -16 10 -28 15 -28 18 0 27 43 35 168 7 119 19 166 49 191 11 10 22 5 50 -20
41 -35 45 -58 15 -84 -20 -19 -20 -18 -44 10 -13 17 -24 33 -25 38 0 4 -3 7
-7 7 -5 0 -8 -60 -8 -132 0 -104 -4 -142 -17 -175 -10 -24 -13 -43 -8 -43 5 0
39 30 74 68 102 106 171 171 175 166 8 -8 -23 -58 -61 -101 -35 -40 -38 -47
-38 -105 0 -60 -11 -119 -29 -163 -5 -11 -14 -40 -21 -65 -7 -25 -16 -58 -22
-75 -12 -41 -79 -150 -128 -209 -23 -27 -44 -62 -47 -77 -3 -16 -14 -36 -25
-46 -73 -66 -86 -369 -22 -509 22 -47 49 -73 62 -59 4 3 -2 27 -12 53 -40 104
-48 154 -42 247 4 50 8 118 11 153 5 72 12 102 26 102 12 0 12 -56 0 -98 -11
-37 -8 -39 26 -12 35 27 57 25 83 -7 61 -78 78 -185 36 -236 -23 -28 -24 -29
-54 -13 -30 15 -72 64 -72 84 0 5 -7 16 -17 23 -15 13 -16 10 -10 -41 14 -117
81 -270 118 -270 14 0 48 76 64 142 19 82 19 151 -2 266 -14 77 -15 111 -7
186 10 89 50 206 61 178 3 -8 1 -24 -5 -35 -27 -60 -32 -85 -32 -165 0 -48 9
-130 20 -182 11 -52 20 -128 20 -167 0 -40 4 -73 9 -73 6 0 28 35 50 78 41 77
97 150 108 139 3 -4 -9 -27 -26 -53 -17 -26 -31 -51 -31 -55 0 -22 -63 -140
-84 -156 -12 -10 -28 -28 -34 -40 -12 -22 -16 -63 -7 -63 3 0 43 25 89 55 98
65 176 144 176 178 0 30 -27 111 -55 162 -120 223 -127 236 -132 289 -8 77 2
116 48 185 39 59 40 61 23 86 -22 33 -8 47 15 16 l18 -24 40 32 c32 26 42 42
52 86 7 29 23 76 37 103 36 73 123 134 205 146 l44 6 -40 -16 c-77 -31 -107
-49 -137 -82 -29 -34 -78 -132 -78 -158 0 -19 24 -18 40 1 7 8 18 15 24 15 20
0 159 89 199 128 20 20 37 30 37 24 0 -7 -17 -30 -37 -52 -35 -36 -86 -69
-213 -137 -66 -35 -70 -44 -66 -140 2 -46 6 -86 9 -89 9 -9 27 6 27 22 0 39
89 169 104 153 3 -2 -8 -25 -23 -49 -33 -53 -81 -170 -81 -197 0 -10 11 -40
23 -68 13 -27 32 -75 42 -105 23 -72 23 -72 45 -60 25 13 46 85 60 205 12 108
27 158 42 149 5 -3 6 -13 3 -23 -4 -9 -11 -65 -16 -126 -13 -163 -24 -200 -70
-237 -38 -30 -52 -68 -26 -68 16 0 73 69 105 128 14 26 34 57 45 69 16 18 20
38 21 93 1 38 -2 70 -6 70 -5 0 -8 21 -8 47 0 47 33 133 51 133 13 0 12 -6
-11 -50 -11 -22 -20 -59 -20 -84 0 -43 1 -44 37 -48 32 -4 41 0 67 31 42 47
113 91 149 91 16 0 26 -4 22 -10 -3 -5 -15 -10 -26 -10 -26 0 -86 -39 -128
-83 -32 -34 -33 -37 -18 -60 26 -40 39 -102 26 -130 -8 -18 -7 -36 5 -77 10
-32 13 -68 10 -91 -4 -25 -3 -39 4 -39 6 0 66 55 134 123 139 138 176 197 184
293 8 80 12 94 25 72 10 -18 -1 -102 -24 -183 -12 -42 -110 -171 -154 -203
-18 -13 -24 -25 -20 -36 5 -14 11 -15 27 -6 34 18 138 1 198 -33 77 -43 161
-161 177 -250 4 -20 11 -37 16 -37 5 0 7 10 4 23 -12 47 92 99 152 76 21 -8
22 -13 20 -91 l-2 -83 -48 2 c-30 2 -65 13 -90 27 l-42 25 -1 -72 c0 -95 -44
-196 -96 -223 -47 -26 -92 -41 -106 -36 -24 8 -11 20 28 26 53 8 104 55 125
114 9 26 19 88 22 138 5 76 3 100 -13 138 -10 25 -22 46 -26 46 -12 0 -10 -34
2 -46 15 -15 -5 -99 -32 -136 -16 -24 -27 -29 -54 -26 -42 3 -50 -5 -30 -34
24 -33 21 -84 -6 -102 -20 -14 -25 -14 -52 2 -34 20 -61 61 -71 109 -9 43 22
75 64 67 29 -6 29 -6 24 37 -5 42 2 67 30 115 22 37 40 55 51 51 74 -28 75 -8
4 59 -101 95 -211 105 -364 34 -58 -27 -90 -54 -223 -188 -179 -180 -209 -205
-288 -238 -32 -12 -58 -28 -58 -35 0 -15 93 -38 157 -39 40 0 58 8 140 63 101
67 188 136 188 149 0 4 -11 8 -25 8 -32 0 -50 36 -41 83 7 37 75 109 114 121
54 18 91 -56 57 -114 -8 -14 -21 -39 -29 -55 -8 -17 -35 -45 -60 -63 -65 -47
-68 -56 -13 -48 122 18 236 -77 167 -139 -14 -12 -41 -20 -78 -23 -48 -3 -66
1 -112 25 -48 24 -55 32 -58 61 -4 37 -12 40 -37 12 -10 -11 -38 -33 -62 -48
-23 -15 -43 -30 -43 -34 0 -5 16 -8 35 -8 42 0 117 -15 210 -42 71 -21 185
-82 185 -99 0 -15 -17 -10 -62 19 -56 37 -129 59 -257 78 -118 18 -188 15
-281 -10 -83 -24 -211 -18 -290 13 -30 11 -58 21 -61 21 -11 0 -39 -84 -39
-117 0 -30 42 -78 151 -172 70 -59 88 -152 41 -204 -37 -43 -63 -96 -69 -146
-6 -56 -17 -64 -35 -26 -16 35 -99 47 -117 16 -12 -18 -31 -5 -31 21 0 11 16
53 35 94 38 79 46 145 23 187 -7 12 -35 49 -62 82 -57 70 -93 142 -102 205 -4
25 -10 50 -15 55 -4 6 -34 12 -66 13 -46 1 -76 11 -148 46 -49 25 -153 65
-229 91 -77 25 -167 59 -202 75 -80 38 -91 38 -60 -3 63 -82 -9 -137 -79 -62
-38 40 -51 84 -35 115 10 19 7 26 -27 55 -51 43 -100 137 -118 222 -13 61 -12
73 3 119 18 52 37 79 89 128 36 33 73 31 52 -2 -7 -11 -19 -17 -28 -15 -9 2
-24 -4 -33 -14 -25 -28 -67 -115 -61 -129 2 -7 22 -15 43 -19 21 -4 44 -13 51
-21 8 -10 25 -12 63 -8 46 5 54 3 79 -22 23 -21 28 -32 23 -56 -4 -22 0 -33
16 -46 54 -43 104 -88 111 -99 14 -22 37 -15 37 12 0 41 -40 133 -66 154 -14
11 -46 30 -70 42 -76 36 -192 164 -170 186 4 4 12 -1 19 -12 28 -51 104 -116
174 -151 55 -27 81 -47 98 -74 28 -45 55 -131 55 -178 0 -26 8 -40 31 -60 18
-15 53 -46 80 -69 94 -82 258 -157 303 -140 30 12 16 24 -46 41 -166 46 -254
121 -348 299 -35 65 -47 149 -32 215 9 39 8 45 -13 65 -56 53 -80 139 -54 189
15 27 5 33 -22 14 -21 -14 -24 -14 -41 1 -24 22 -23 68 3 104 27 39 57 38 71
-2 9 -27 12 -29 25 -16 21 21 9 50 -35 81 -48 33 -79 33 -128 0 l-38 -26 25
33 c47 60 102 63 165 7 l36 -31 23 29 c28 34 30 50 11 90 -20 41 -30 84 -19
84 5 0 16 -23 23 -50 8 -28 19 -49 24 -47 6 1 27 35 46 74 19 40 38 72 41 72
14 2 -13 -84 -44 -140 l-32 -58 21 -23 c12 -13 31 -42 43 -65 31 -62 40 -58
56 27 7 39 13 60 51 178 14 45 30 82 35 82 14 0 12 -8 -31 -177 -22 -87 -39
-164 -38 -173 2 -10 17 2 41 34 27 36 35 55 31 73 -14 55 73 134 165 149 22 4
46 13 53 21 16 19 19 91 8 187 -9 89 -22 106 -77 106 -42 0 -225 63 -264 91
l-31 22 -21 -21 -21 -22 21 -22 c30 -33 37 -63 18 -82 -23 -22 -34 -20 -47 9
-12 27 -27 33 -32 13 -14 -61 -52 -157 -73 -189 -32 -49 -39 -45 -14 7 10 21
29 72 40 112 12 40 38 104 58 144 l36 71 -24 19 c-13 10 -46 37 -72 60 -49 41
-49 41 -90 28 -134 -43 -241 -152 -286 -292 -7 -21 -17 -41 -23 -44 -14 -9 -1
50 23 103 10 24 19 47 19 53 0 6 35 46 78 89 58 59 90 83 130 98 29 11 53 24
53 29 0 5 -37 33 -82 62 -46 28 -77 52 -71 52 7 0 20 -4 30 -9 62 -31 91 -48
123 -73 40 -31 62 -34 120 -17 78 24 292 -34 345 -92 15 -17 44 -26 44 -14 0
2 -7 23 -16 45 -13 31 -14 44 -5 53 6 6 11 31 11 57 0 46 29 110 51 110 5 0
19 -5 30 -10z m474 0 c4 -6 16 -10 28 -8 28 4 33 -21 18 -88 -12 -51 -14 -54
-73 -83 -63 -31 -80 -30 -107 3 -17 21 -5 88 21 122 23 28 75 64 95 64 6 0 15
-5 18 -10z m839 -2 c58 -26 34 -85 -29 -72 -43 9 -59 27 -51 58 7 29 37 34 80
14z m-1759 -52 c9 -25 6 -31 -20 -52 -32 -26 -74 -31 -93 -12 -35 35 15 102
72 96 23 -2 33 -10 41 -32z m727 7 c14 -12 18 -31 18 -78 0 -70 -14 -91 -53
-81 -47 11 -63 103 -26 150 24 30 36 32 61 9z m-121 -46 c-8 -8 -11 -5 -11 9
0 27 14 41 18 19 2 -9 -1 -22 -7 -28z m-1071 11 c0 -7 -12 -24 -25 -37 -14
-13 -25 -31 -25 -40 0 -10 -13 -30 -30 -46 -27 -26 -40 -55 -24 -55 11 0 44
46 70 98 18 35 32 52 45 52 12 0 19 -7 19 -20 0 -11 5 -20 10 -20 6 0 10 5 10
12 0 6 7 19 16 29 15 16 19 17 44 4 32 -16 40 -33 40 -81 0 -40 -34 -112 -57
-121 -23 -9 -46 10 -55 46 -9 33 -28 34 -28 1 0 -25 -81 -110 -104 -110 -9 0
-28 7 -41 16 -23 15 -25 22 -25 96 0 88 12 121 60 162 34 28 100 37 100 14z
m1534 -33 c27 -42 19 -105 -15 -105 -39 0 -67 88 -37 118 18 18 34 14 52 -13z
m585 10 c54 -27 56 -83 5 -130 -45 -42 -106 -58 -160 -44 -52 15 -62 24 -70
66 -5 28 -2 39 17 60 55 58 148 80 208 48z m-1053 -71 c-4 -19 -11 -34 -16
-34 -11 0 -13 43 -3 79 5 20 7 21 15 6 6 -9 7 -32 4 -51z m659 18 c34 -24 84
-91 85 -114 0 -4 -10 -19 -23 -34 -20 -23 -28 -26 -63 -20 -57 10 -133 79
-141 129 -12 80 57 99 142 39z m-331 -74 c-20 -41 -65 -101 -70 -95 -7 6 25
75 54 120 31 47 44 29 16 -25z m912 -4 c12 -3 30 -21 39 -39 18 -32 18 -33 -4
-68 -29 -48 -63 -68 -124 -73 -68 -6 -99 10 -111 59 -8 32 -7 40 15 63 45 50
125 74 185 58z m-1925 -37 c72 -38 85 -118 23 -133 -56 -14 -164 46 -164 90 0
63 65 83 141 43z m904 7 c34 -34 -14 -113 -70 -117 -21 -1 -30 3 -33 16 -6 29
6 61 32 90 29 31 48 34 71 11z m308 -28 c68 -29 116 -100 50 -75 -18 7 -36 6
-56 -1 -17 -5 -61 -10 -99 -10 -57 0 -75 -4 -106 -25 -47 -32 -62 -32 -62 2 0
32 66 98 113 112 48 14 124 13 160 -3z m882 -42 c9 -9 15 -26 13 -38 -3 -18
-10 -21 -47 -21 -58 0 -78 26 -42 56 28 23 54 24 76 3z m-809 -65 c9 -15 -16
-49 -41 -55 -14 -3 -25 -9 -25 -13 0 -4 -21 -18 -46 -31 -59 -29 -155 -25
-203 10 -34 23 -33 40 1 40 12 0 32 10 45 22 18 17 37 22 90 23 38 1 84 7 103
12 37 10 67 7 76 -8z m360 -10 c43 -26 61 -49 78 -97 14 -40 14 -43 -6 -62
-12 -11 -27 -20 -32 -21 -53 -6 -106 21 -155 77 -30 33 -41 74 -21 74 5 0 7 7
3 16 -17 45 68 53 133 13z m-1699 -21 c35 -39 46 -71 46 -130 0 -68 -21 -101
-62 -96 -20 2 -32 15 -53 58 -39 77 -37 158 5 178 33 16 41 14 64 -10z m1490
0 c-3 -8 -6 -5 -6 6 -1 11 2 17 5 13 3 -3 4 -12 1 -19z m-1160 -30 c11 -13 27
-36 35 -53 18 -35 34 -149 19 -125 -8 12 -13 12 -23 2 -21 -21 -45 -13 -77 25
-40 48 -50 111 -25 147 23 32 44 33 71 4z m1742 8 c26 -14 51 -53 51 -80 0
-19 -61 -73 -102 -90 -45 -19 -114 -20 -148 -3 -44 22 -39 74 11 132 46 52
131 70 188 41z m233 -13 c10 -9 18 -22 18 -29 0 -30 -34 -82 -64 -96 -51 -26
-65 -28 -82 -11 -27 27 -12 82 33 120 43 37 68 41 95 16z m-832 -28 c0 -8 -7
-15 -15 -15 -16 0 -20 12 -8 23 11 12 23 8 23 -8z m-1822 -27 c6 -6 12 -19 12
-28 0 -10 5 -20 12 -22 14 -5 -14 -82 -40 -112 -38 -42 -105 -59 -116 -30 -7
17 2 63 16 80 5 8 3 14 -7 18 -15 5 -35 -27 -35 -55 0 -23 -18 3 -22 31 -4 25
1 35 21 51 14 11 28 32 31 47 3 17 14 29 30 33 29 8 79 1 98 -13z m1356 -39
c54 -42 89 -161 51 -175 -8 -3 -17 -14 -20 -25 -21 -66 -135 63 -135 153 0 21
45 68 65 68 7 0 24 -9 39 -21z m-572 -11 c-7 -7 -12 -8 -12 -2 0 6 3 14 7 17
3 4 9 5 12 2 2 -3 -1 -11 -7 -17z m116 -20 c26 -54 -32 -134 -78 -106 -11 7
-22 18 -25 25 -12 32 45 116 74 111 9 -2 22 -15 29 -30z m-673 -3 c55 -39 67
-53 72 -91 7 -53 -18 -76 -84 -76 -92 1 -178 57 -169 111 2 14 5 31 5 38 1 7
13 19 29 28 32 18 115 12 147 -10z m1714 -94 c36 -26 45 -67 20 -92 -26 -26
-102 -24 -154 5 -35 19 -40 26 -38 56 1 20 9 40 20 48 25 19 115 9 152 -17z
m553 20 c13 -5 42 -15 65 -21 49 -15 86 -50 107 -102 14 -32 14 -39 -1 -68
-18 -37 -70 -63 -117 -58 -25 2 -30 7 -28 25 2 12 -2 24 -8 28 -6 4 -10 -6
-10 -24 0 -39 -16 -40 -85 -7 -76 37 -125 87 -125 129 0 43 26 77 71 93 41 15
100 17 131 5z m-326 -46 c21 -32 13 -64 -29 -109 -45 -47 -81 -55 -113 -25
-18 17 -23 30 -19 47 9 37 36 73 70 93 41 26 71 24 91 -6z m-902 -46 c23 -18
26 -27 26 -84 0 -53 -3 -66 -19 -75 -50 -26 -74 -5 -86 77 -5 42 -3 57 12 77
22 31 33 32 67 5z m976 -4 c0 -8 -2 -15 -4 -15 -2 0 -6 7 -10 15 -3 8 -1 15 4
15 6 0 10 -7 10 -15z m-2064 -30 c47 -28 61 -54 44 -85 -16 -29 -54 -25 -91
11 l-32 31 7 -29 c22 -86 11 -144 -27 -151 -60 -12 -117 168 -70 220 22 24 30
23 58 -9 19 -22 24 -24 25 -11 0 16 25 48 37 48 4 0 25 -11 49 -25z m2099 -71
c-12 -32 -86 -60 -117 -43 -40 21 -18 68 47 102 29 15 31 15 55 -8 20 -21 22
-29 15 -51z m-569 54 c12 -19 22 -98 12 -92 -5 4 -20 -4 -33 -16 -34 -32 -75
-21 -75 20 0 43 37 100 65 100 13 0 27 -5 31 -12z m64 -28 c0 -5 -5 -10 -11
-10 -5 0 -7 5 -4 10 3 6 8 10 11 10 2 0 4 -4 4 -10z m138 -22 c10 -21 10 -33
2 -48 -24 -45 -67 -4 -55 51 8 37 34 36 53 -3z m-1688 -78 c0 -5 -5 -10 -11
-10 -5 0 -7 5 -4 10 3 6 8 10 11 10 2 0 4 -4 4 -10z m1413 -38 c20 -18 22 -40
5 -79 -19 -46 -36 -61 -63 -55 -29 5 -39 31 -30 80 14 76 42 93 88 54z m561 1
c30 -29 31 -60 3 -77 -15 -9 -23 -5 -48 22 -41 45 -38 78 7 81 6 1 23 -11 38
-26z m-2238 -8 c45 -26 94 -95 94 -131 0 -32 -29 -64 -57 -64 -32 0 -101 38
-107 59 -14 50 -16 80 -7 86 8 4 8 12 0 26 -13 26 -5 49 17 49 10 0 37 -11 60
-25z m2491 -3 c17 -9 37 -26 44 -39 7 -13 18 -23 25 -23 18 0 60 -54 73 -93
14 -41 -7 -102 -37 -109 -50 -13 -112 -1 -149 28 -63 51 -103 119 -103 174 0
43 3 50 32 69 35 22 61 20 115 -7z m-401 8 c21 0 74 -60 74 -84 0 -58 -78 -57
-136 1 -40 40 -40 42 -13 72 15 15 28 21 43 17 11 -3 26 -6 32 -6z m-1864 -12
c25 -21 39 -75 26 -103 -15 -33 -34 -38 -57 -13 -29 30 -36 74 -17 103 19 28
26 30 48 13z m906 -120 c15 -15 16 -82 2 -108 -16 -30 -46 -43 -70 -30 -30 16
-27 80 6 119 28 33 43 38 62 19z m-1199 -71 c22 -26 43 -58 47 -70 8 -35 -12
-77 -37 -77 -19 0 -21 4 -16 40 3 27 1 43 -9 51 -11 9 -14 7 -14 -15 0 -38
-21 -33 -53 14 -22 31 -22 68 0 92 23 25 33 21 82 -35z m333 6 c18 -16 24 -33
11 -33 -10 1 -46 50 -37 50 4 0 16 -7 26 -17z m1832 -8 c25 -19 14 -59 -26
-97 -37 -34 -53 -35 -73 -4 -15 23 -15 27 4 64 27 53 58 65 95 37z m288 -22
c24 -21 23 -35 -4 -60 -35 -32 -89 -39 -112 -14 -22 25 -15 51 21 73 36 22 71
23 95 1z m-1063 -89 c12 -15 26 -44 32 -65 10 -32 9 -42 -5 -64 -20 -31 -46
-32 -73 -2 -31 33 -43 62 -43 99 0 61 52 79 89 32z m1372 11 c25 -13 28 -20
22 -43 -3 -15 -7 -58 -7 -97 l-1 -69 -45 -9 c-52 -9 -159 0 -177 15 -18 15
-16 38 3 38 8 0 35 9 59 20 28 13 61 19 86 18 27 -2 43 2 46 10 4 9 -14 12
-67 12 -64 0 -74 -3 -91 -24 -24 -30 -55 -38 -74 -19 -18 17 -18 18 -4 46 18
35 61 77 79 77 9 0 20 3 24 8 9 9 75 30 99 31 10 1 31 -6 48 -14z m-391 -180
c17 -9 30 -23 30 -31 0 -27 -32 -87 -64 -121 -24 -27 -37 -33 -72 -33 -36 0
-43 4 -53 28 -17 39 17 113 67 147 43 29 53 30 92 10z m-2226 -175 c31 -12 51
-56 60 -137 12 -103 -14 -162 -76 -177 -22 -5 -29 -1 -46 27 -48 82 -48 222 1
275 23 25 26 26 61 12z m-153 -137 c10 -28 4 -94 -13 -125 -23 -46 -85 4 -72
58 8 33 50 94 65 94 5 0 14 -12 20 -27z m2763 -102 c24 -10 24 -13 23 -98 -1
-51 -6 -88 -12 -87 -34 1 -97 20 -137 41 -42 20 -48 27 -48 54 0 17 5 39 10
49 23 43 105 63 164 41z m-428 -118 c-9 -9 -55 22 -69 47 -25 41 -22 41 28 -4
24 -22 43 -42 41 -43z m279 -78 c60 -58 105 -141 105 -193 0 -23 -9 -41 -30
-62 -17 -17 -34 -30 -38 -30 -117 1 -252 214 -197 308 15 25 24 30 61 30 40 1
49 -4 99 -53z m-244 15 c31 -41 35 -84 10 -109 -27 -27 -37 -26 -65 2 -29 29
-44 101 -25 123 18 21 59 13 80 -16z m739 -139 c0 -6 -10 -17 -22 -26 -26 -17
-37 -3 -18 20 14 17 40 20 40 6z m-204 -206 c-46 -53 -71 -75 -44 -37 29 40
83 100 87 97 2 -3 -17 -29 -43 -60z"/>
<path d="M4205 8078 c-21 -25 -25 -38 -21 -62 9 -44 37 -68 80 -69 46 -1 66
21 47 51 -7 12 -12 12 -29 1 -19 -12 -24 -11 -38 3 -10 10 -14 23 -9 37 5 17
14 21 46 21 27 0 42 5 46 16 8 21 -14 34 -59 34 -29 0 -42 -7 -63 -32z"/>
<path d="M4366 8035 c-20 -41 -36 -79 -36 -85 0 -18 35 -11 48 10 7 11 22 20
33 20 12 0 23 -8 26 -20 3 -12 14 -20 25 -20 16 0 19 5 15 23 -43 177 -56 186
-111 72z m54 -10 c0 -8 -4 -15 -10 -15 -5 0 -10 7 -10 15 0 8 5 15 10 15 6 0
10 -7 10 -15z"/>
<path d="M4506 8078 c-12 -45 -7 -136 8 -141 18 -7 26 1 26 25 0 25 25 22 37
-5 14 -31 83 -35 109 -6 22 24 40 24 54 -1 13 -25 40 -26 40 -2 -1 32 -21 107
-36 129 -21 33 -40 19 -74 -53 -16 -35 -34 -64 -40 -64 -19 0 -22 28 -6 52 21
30 20 44 -4 68 -14 14 -33 20 -64 20 -37 0 -45 -4 -50 -22z m79 -38 c0 -8 -8
-16 -17 -18 -13 -2 -18 3 -18 18 0 15 5 20 18 18 9 -2 17 -10 17 -18z m139
-31 c-3 -5 -10 -7 -15 -3 -5 3 -7 10 -3 15 3 5 10 7 15 3 5 -3 7 -10 3 -15z"/>
<path d="M4817 8083 c-3 -5 -7 -39 -8 -78 -4 -65 -2 -70 16 -70 14 0 20 7 22
25 2 44 3 45 18 26 14 -19 15 -19 36 0 l21 19 -7 -38 c-6 -33 -5 -37 12 -37
17 0 21 9 27 61 9 93 8 99 -14 99 -11 0 -20 -3 -20 -7 0 -5 -9 -19 -20 -33
l-19 -25 -12 33 c-10 30 -40 44 -52 25z"/>
<path d="M4993 8074 c-4 -10 -7 -47 -7 -83 l-1 -66 41 -5 c52 -7 64 -3 64 21
0 15 -7 19 -36 19 -23 0 -34 4 -32 12 3 7 18 12 34 13 39 0 40 29 1 33 -37 4
-29 26 9 27 22 0 29 5 29 20 0 17 -8 20 -48 23 -37 2 -49 0 -54 -14z"/>
<path d="M5132 8081 c-7 -4 -15 -38 -19 -79 -7 -81 -3 -85 71 -86 35 -1 41 2
41 19 0 15 -8 21 -34 23 l-34 3 6 50 c8 69 -1 90 -31 70z"/>
<path d="M3780 7778 c-27 -30 -25 -62 5 -82 28 -18 73 -13 92 11 10 13 13 12
25 -6 14 -23 38 -27 55 -10 8 8 13 8 17 0 4 -6 25 -11 47 -11 34 0 39 3 39 23
l0 22 18 -21 c17 -22 45 -25 71 -9 11 6 13 4 8 -9 -20 -51 36 -34 58 17 15 36
10 54 -10 37 -9 -8 -20 -8 -32 -2 -31 16 -111 24 -118 12 -5 -8 -14 -6 -32 5
-23 16 -25 15 -30 -4 l-5 -21 -26 20 c-18 15 -28 17 -38 10 -8 -8 -14 -8 -19
0 -3 5 -13 10 -21 10 -9 0 -22 7 -30 15 -22 21 -50 19 -74 -7z m73 -38 c-7
-25 -36 -23 -41 3 -3 12 3 17 21 17 20 0 24 -4 20 -20z"/>
<path d="M4266 7762 c-3 -5 -8 -28 -12 -50 -5 -35 -4 -42 10 -42 9 0 16 4 16
9 0 6 12 3 28 -5 37 -19 78 -18 86 3 6 14 8 14 22 -3 13 -17 16 -18 26 -3 11
15 13 15 27 -2 23 -28 89 -16 102 18 16 43 12 53 -21 47 -17 -4 -36 -1 -44 5
-10 8 -16 9 -21 1 -3 -6 -11 -7 -17 -4 -6 4 -17 -2 -25 -12 -12 -17 -15 -17
-23 -4 -12 22 -80 26 -80 5 0 -8 -4 -15 -10 -15 -13 0 -13 17 0 25 17 10 -9
35 -36 35 -12 0 -25 -4 -28 -8z m244 -62 c0 -5 -7 -10 -16 -10 -8 0 -12 5 -9
10 3 6 10 10 16 10 5 0 9 -4 9 -10z"/>
<path d="M4796 7742 c-3 -4 -20 -7 -38 -6 -18 1 -37 -1 -43 -6 -5 -4 -30 -8
-54 -8 -52 -1 -54 -2 -45 -36 6 -25 9 -26 65 -25 33 1 65 -4 73 -10 12 -10 20
-9 41 5 21 14 28 15 35 4 11 -18 30 -3 30 25 0 24 -54 73 -64 57z m-14 -54
c-7 -7 -12 -8 -12 -2 0 14 12 26 19 19 2 -3 -1 -11 -7 -17z"/>
<path d="M4900 7709 c-7 -11 -9 -31 -6 -44 5 -21 12 -23 65 -24 40 0 63 5 72
15 9 12 15 12 27 2 9 -8 49 -14 101 -15 263 -6 347 -9 358 -16 20 -13 53 29
53 68 0 38 -13 44 -44 20 -12 -9 -34 -12 -70 -9 -80 8 -90 10 -109 18 -9 5
-23 4 -30 -2 -19 -15 -85 -24 -92 -12 -8 14 -68 13 -83 -2 -8 -8 -15 -8 -25 0
-19 16 -147 13 -147 -3 0 -20 -29 -40 -41 -28 -7 7 -4 15 10 25 23 16 18 28
-10 28 -10 0 -23 -9 -29 -21z m176 -26 c-10 -10 -19 5 -10 18 6 11 8 11 12 0
2 -7 1 -15 -2 -18z m314 -4 c0 -5 -7 -9 -15 -9 -15 0 -20 12 -9 23 8 8 24 -1
24 -14z m-215 -9 c3 -5 1 -10 -4 -10 -6 0 -11 5 -11 10 0 6 2 10 4 10 3 0 8
-4 11 -10z m355 0 c0 -5 -4 -10 -10 -10 -5 0 -10 5 -10 10 0 6 5 10 10 10 6 0
10 -4 10 -10z"/>
<path d="M4137 7608 c-3 -23 -3 -46 -1 -50 3 -4 25 -8 49 -8 30 0 45 5 49 16
5 14 10 13 29 -10 26 -30 45 -33 54 -10 6 15 19 15 74 -2 9 -2 24 3 33 11 14
15 16 15 16 1 0 -24 17 -19 25 7 l8 22 4 -22 c7 -34 33 -29 33 6 0 39 -22 56
-57 44 -33 -11 -121 -7 -137 6 -6 5 -33 5 -61 1 -41 -6 -55 -4 -77 11 -14 11
-28 19 -31 19 -2 0 -7 -19 -10 -42z m53 -18 c0 -5 -4 -10 -10 -10 -5 0 -10 5
-10 10 0 6 5 10 10 10 6 0 10 -4 10 -10z m120 -10 c0 -5 -4 -10 -9 -10 -6 0
-13 5 -16 10 -3 6 1 10 9 10 9 0 16 -4 16 -10z"/>
<path d="M4540 7570 l0 -40 70 4 c63 3 70 2 70 -15 0 -23 23 -25 40 -4 7 9 21
13 34 9 47 -11 106 35 92 72 -5 12 -10 13 -26 4 -16 -9 -25 -8 -37 1 -13 11
-18 10 -29 -6 -8 -10 -14 -14 -14 -8 0 19 -39 26 -71 13 -16 -7 -29 -16 -29
-21 0 -5 -7 -9 -15 -9 -8 0 -12 6 -9 14 3 9 -5 15 -27 20 -48 9 -49 9 -49 -34z
m165 0 c3 -5 1 -10 -4 -10 -6 0 -11 5 -11 10 0 6 2 10 4 10 3 0 8 -4 11 -10z"/>
<path d="M4896 7594 c-20 -19 -21 -74 -2 -74 7 0 16 9 19 20 5 20 6 20 33 -5
30 -27 44 -31 61 -14 7 7 17 8 25 3 26 -16 78 -12 89 8 13 24 28 23 22 -2 -4
-16 0 -20 21 -20 24 0 26 4 26 39 0 45 -11 57 -38 42 -13 -7 -22 -7 -30 1 -8
8 -15 8 -25 -1 -11 -9 -17 -8 -27 4 -14 17 -40 20 -40 4 0 -6 -9 -8 -20 -4
-12 4 -28 1 -36 -6 -11 -9 -18 -8 -32 5 -23 20 -27 20 -46 0z m104 -44 c0 -5
-2 -10 -4 -10 -3 0 -8 5 -11 10 -3 6 -1 10 4 10 6 0 11 -4 11 -10z"/>
<path d="M4563 6918 c-6 -7 -13 -25 -17 -40 -3 -16 -11 -28 -17 -28 -11 0 -89
-75 -89 -85 0 -12 29 -3 50 15 13 11 32 20 44 20 38 1 59 25 51 59 -5 25 -3
31 9 31 14 0 14 3 4 20 -15 23 -22 25 -35 8z"/>
<path d="M4758 6824 c-29 -15 -71 -81 -82 -126 -4 -16 -13 -28 -21 -28 -8 0
-15 -5 -15 -11 0 -6 -21 -9 -52 -7 -39 2 -53 7 -53 18 0 11 11 15 42 15 23 0
48 6 54 13 7 6 9 12 3 12 -5 0 -15 -5 -22 -12 -15 -15 -67 35 -58 57 3 9 0 15
-8 15 -8 0 -16 -7 -20 -15 -3 -10 -19 -15 -42 -15 -40 0 -98 -31 -114 -60 -20
-37 -11 -74 30 -124 29 -35 40 -57 40 -81 0 -19 9 -43 21 -56 l21 -24 -5 23
c-4 18 18 138 28 150 1 2 19 -7 39 -19 23 -13 46 -19 63 -16 43 8 80 -12 110
-59 31 -48 43 -55 43 -24 0 11 -5 20 -11 20 -16 0 -6 44 11 48 18 3 43 -48 35
-71 -4 -8 -2 -18 4 -21 17 -11 25 43 11 70 -11 19 -11 29 -1 47 12 23 11 161
-2 174 -10 10 -8 43 2 43 16 0 25 -22 31 -70 7 -60 34 -63 38 -5 1 22 7 57 14
77 10 33 9 41 -7 58 -22 24 -87 27 -127 4z m-58 -184 c13 -25 0 -53 -36 -76
-17 -12 -28 -14 -36 -6 -12 12 -2 52 14 52 5 0 7 -8 4 -17 -6 -15 -4 -15 14 2
11 10 20 29 20 42 0 28 6 29 20 3z"/>
<path d="M4585 6799 c-4 -6 -5 -13 -2 -16 7 -7 27 6 27 18 0 12 -17 12 -25 -2z"/>
<path d="M4346 6535 c-23 -17 -14 -32 19 -32 33 0 39 10 17 30 -14 13 -20 13
-36 2z"/>
<path d="M4051 6207 c-49 -17 -72 -53 -77 -123 -6 -71 14 -119 64 -148 68 -39
143 12 161 109 22 117 -49 195 -148 162z"/>
<path d="M4427 6183 c-6 -12 -25 -129 -32 -199 -7 -70 -3 -74 70 -74 80 0 135
77 122 172 -8 60 -60 108 -116 108 -22 0 -42 -3 -44 -7z"/>
<path d="M5297 6038 c-19 -47 -11 -64 23 -53 19 6 21 12 15 43 -10 55 -20 57
-38 10z"/>
<path d="M4245 5680 c-9 -10 -14 -24 -10 -30 8 -13 22 -5 35 20 14 26 -4 34
-25 10z"/>
<path d="M4690 5711 c-13 -26 -13 -31 4 -31 13 0 26 20 26 41 0 16 -19 10 -30
-10z"/>
<path d="M4850 5665 c-7 -8 -9 -23 -5 -32 6 -17 7 -17 21 1 26 36 12 64 -16
31z"/>
<path d="M3647 5246 c-8 -19 16 -38 37 -30 20 8 21 30 0 38 -24 9 -31 7 -37
-8z"/>
<path d="M3798 5216 c-14 -33 -4 -56 25 -56 33 0 51 24 43 55 -9 34 -52 35
-68 1z"/>
<path d="M4296 5204 c-3 -9 -6 -31 -6 -50 0 -26 4 -34 18 -34 22 0 52 30 52
52 0 17 -31 48 -47 48 -6 0 -14 -7 -17 -16z"/>
<path d="M4698 5178 c-45 -35 -7 -104 42 -78 27 14 27 65 1 80 -24 13 -24 13
-43 -2z"/>
<path d="M4127 4993 c-12 -11 -8 -23 8 -23 8 0 15 7 15 15 0 16 -12 20 -23 8z"/>
<path d="M3992 4499 c-17 -44 10 -67 38 -33 11 13 10 19 -8 36 l-21 22 -9 -25z"/>
<path d="M4465 4471 c-3 -5 -1 -12 5 -16 12 -7 30 2 30 16 0 12 -27 12 -35 0z"/>
<path d="M4582 4458 c-16 -16 -15 -33 4 -48 22 -19 54 12 38 37 -14 22 -27 26
-42 11z"/>
<path d="M4670 4065 c-20 -24 -6 -28 15 -5 10 11 13 20 8 20 -6 0 -16 -7 -23
-15z"/>
<path d="M4057 4042 c4 -39 2 -62 -6 -66 -14 -9 -15 -136 -1 -136 6 0 10 27
10 60 0 34 7 74 16 93 15 31 15 36 -4 71 l-20 37 5 -59z"/>
<path d="M4452 4005 c0 -16 2 -22 5 -12 2 9 2 23 0 30 -3 6 -5 -1 -5 -18z"/>
<path d="M4447 3954 c-4 -4 -7 -14 -7 -23 0 -11 3 -12 11 -4 6 6 10 16 7 23
-2 6 -7 8 -11 4z"/>
<path d="M4412 3890 c-14 -23 -17 -79 -3 -64 9 9 27 84 20 84 -3 0 -10 -9 -17
-20z"/>
<path d="M3706 3973 c-12 -13 -5 -41 24 -94 16 -30 35 -79 41 -109 9 -47 19
-62 62 -102 54 -51 67 -57 67 -33 0 8 -19 27 -43 44 -40 27 -67 76 -67 120 0
6 -13 39 -30 73 -16 34 -30 69 -30 79 0 20 -14 32 -24 22z"/>
<path d="M4820 3910 c0 -5 12 -17 26 -27 67 -47 82 -64 93 -107 6 -24 26 -64
45 -89 19 -24 39 -54 45 -66 7 -11 16 -21 21 -21 20 0 9 38 -21 76 -17 22 -46
71 -65 110 -28 59 -41 76 -84 102 -56 35 -60 36 -60 22z"/>
<path d="M3136 3842 c12 -9 35 -37 51 -62 38 -56 73 -89 73 -69 0 8 -13 27
-30 42 -16 16 -30 34 -30 41 0 17 -53 66 -71 66 -10 0 -8 -6 7 -18z"/>
<path d="M3426 3774 c-5 -14 -4 -15 9 -4 17 14 19 20 6 20 -5 0 -12 -7 -15
-16z"/>
<path d="M5219 3703 c-13 -17 -13 -17 6 -3 11 8 22 16 24 17 2 2 0 3 -6 3 -6
0 -17 -8 -24 -17z"/>
<path d="M3640 3496 c0 -9 4 -16 9 -16 5 0 32 -18 61 -41 48 -38 53 -40 69
-25 10 9 41 22 69 28 29 7 51 17 49 23 -6 18 -81 37 -169 42 -77 5 -88 4 -88
-11z"/>
<path d="M3900 3415 c-25 -7 -57 -16 -72 -19 -16 -4 -28 -10 -28 -15 0 -15
146 -68 238 -86 62 -13 50 47 -22 104 -43 34 -50 35 -116 16z"/>
<path d="M4130 3329 c0 -5 5 -7 10 -4 6 3 10 8 10 11 0 2 -4 4 -10 4 -5 0 -10
-5 -10 -11z"/>
<path d="M4272 3046 l-94 -93 -15 -84 c-8 -46 -15 -91 -15 -99 0 -8 -7 -43
-14 -78 -15 -65 -7 -107 19 -96 15 6 116 161 153 234 15 30 31 73 35 95 4 22
15 69 23 105 17 72 20 110 9 110 -5 -1 -50 -43 -101 -94z"/>
<path d="M4115 2930 c-7 -12 2 -30 16 -30 5 0 9 9 9 20 0 21 -15 27 -25 10z"/>
<path d="M4059 2843 c-13 -16 -12 -17 4 -4 9 7 17 15 17 17 0 8 -8 3 -21 -13z"/>
<path d="M4574 2825 c-14 -22 -14 -29 -1 -67 8 -24 25 -78 38 -121 15 -50 30
-82 42 -89 27 -14 33 -2 15 30 -24 41 -49 147 -50 213 -1 65 -16 77 -44 34z"/>
<path d="M3670 2775 l-21 -35 22 -65 c23 -69 23 -86 3 -351 -7 -82 -1 -134 15
-134 4 0 11 41 15 92 5 70 18 123 51 221 l44 129 -47 89 c-26 49 -50 89 -54
89 -3 0 -16 -16 -28 -35z"/>
<path d="M4526 2763 c-23 -24 -46 -102 -46 -160 0 -65 17 -111 76 -204 36 -58
91 -167 98 -195 7 -25 8 -25 26 -9 24 22 39 114 31 188 -6 49 -13 63 -49 100
-48 50 -86 128 -103 215 -12 62 -20 78 -33 65z"/>
<path d="M4047 2724 c-19 -10 -41 -13 -65 -9 -37 6 -38 5 -83 -63 -25 -38 -49
-85 -53 -105 -4 -22 -13 -37 -21 -37 -18 0 -23 -9 -45 -84 -10 -35 -21 -73
-25 -85 -9 -29 15 -28 44 2 14 16 25 46 32 86 8 49 17 70 42 96 52 53 77 54
110 5 38 -55 6 -184 -52 -215 -17 -8 -31 -22 -31 -31 0 -27 71 -182 86 -188
11 -4 14 14 14 102 0 59 5 125 11 147 6 22 13 56 15 75 10 75 25 156 36 183 8
20 8 31 0 39 -8 8 -6 18 8 36 20 24 27 62 13 62 -5 -1 -21 -8 -36 -16z m-27
-84 c-33 -26 -48 -26 -25 0 10 11 25 20 34 20 12 0 9 -6 -9 -20z"/>
<path d="M3616 2681 c-3 -5 -8 -39 -11 -77 -6 -72 13 -132 44 -142 11 -4 13
13 9 94 -3 55 -9 107 -13 117 -8 18 -21 22 -29 8z"/>
<path d="M4100 2565 c0 -16 6 -25 15 -25 9 0 15 9 15 25 0 16 -6 25 -15 25 -9
0 -15 -9 -15 -25z"/>
<path d="M5020 2574 c0 -8 5 -12 10 -9 6 4 8 11 5 16 -9 14 -15 11 -15 -7z"/>
<path d="M3922 2485 c-1 -23 -7 -46 -14 -53 -6 -6 -9 -14 -6 -18 12 -12 29 38
25 74 l-4 37 -1 -40z"/>
<path d="M4930 2417 c-25 -45 -70 -109 -101 -142 -37 -39 -59 -72 -64 -95 -13
-62 -68 -153 -137 -225 -94 -97 -91 -108 12 -50 69 39 122 78 190 141 25 23
78 69 118 103 102 88 127 128 127 207 0 61 -1 64 -42 104 -23 22 -46 40 -50
40 -4 0 -28 -38 -53 -83z m12 -193 c11 -24 9 -29 -20 -55 -36 -33 -76 -37
-104 -12 -25 22 -23 30 13 64 42 39 94 40 111 3z"/>
<path d="M3185 2330 c-9 -15 33 -170 47 -170 4 0 8 18 8 40 0 27 7 47 20 60
29 29 25 43 -19 63 -44 20 -48 20 -56 7z"/>
<path d="M3825 2320 c-3 -11 -22 -33 -42 -49 -35 -28 -35 -30 -28 -83 11 -79
42 -144 92 -187 45 -41 166 -96 189 -87 18 7 -29 112 -62 138 -31 25 -56 74
-84 168 -30 102 -38 120 -49 120 -5 0 -12 -9 -16 -20z"/>
<path d="M4212 2303 c2 -9 8 -18 15 -20 7 -3 9 3 6 16 -6 25 -26 28 -21 4z"/>
<path d="M4230 2205 c0 -14 32 -65 40 -65 14 0 13 8 -7 41 -15 26 -33 38 -33
24z"/>
<path d="M3406 2155 c-21 -31 -85 -52 -114 -36 -52 28 -42 -6 15 -48 44 -33
83 -49 263 -113 47 -17 90 -35 97 -40 7 -5 22 -8 35 -6 22 3 22 4 -11 33 -128
111 -228 202 -239 217 -18 24 -27 23 -46 -7z"/>
<path d="M5123 2105 c-29 -30 -43 -52 -43 -71 0 -26 0 -27 20 -9 11 10 20 22
20 28 0 5 14 25 30 44 29 33 38 54 23 52 -5 0 -27 -20 -50 -44z"/>
<path d="M5530 2109 c-8 -14 -9 -24 -2 -31 14 -14 32 -1 32 22 0 28 -17 33
-30 9z"/>
<path d="M5710 2030 c0 -5 9 -10 20 -10 11 0 20 5 20 10 0 6 -9 10 -20 10 -11
0 -20 -4 -20 -10z"/>
<path d="M5795 2030 c3 -5 8 -10 11 -10 2 0 4 5 4 10 0 6 -5 10 -11 10 -5 0
-7 -4 -4 -10z"/>
<path d="M4438 1783 c-50 -4 -61 -16 -30 -32 26 -14 207 -42 226 -35 24 9 19
23 -11 29 -16 4 -47 15 -71 26 -23 10 -48 18 -55 17 -6 -1 -33 -3 -59 -5z"/>
<path d="M4542 3594 c-23 -20 -42 -42 -42 -51 0 -9 19 3 47 31 56 56 54 68 -5
20z"/>
<path d="M3285 3470 c-3 -5 -1 -10 4 -10 6 0 11 5 11 10 0 6 -2 10 -4 10 -3 0
-8 -4 -11 -10z"/>
<path d="M5288 3514 c-16 -8 -28 -17 -28 -19 0 -12 30 -3 51 15 28 23 15 25
-23 4z"/>
<path d="M5155 3480 c-8 -13 15 -13 35 0 12 8 11 10 -7 10 -12 0 -25 -4 -28
-10z"/>
<path d="M4840 3513 c0 -5 14 -17 30 -28 16 -11 30 -23 30 -27 0 -12 43 -48
58 -48 8 0 -10 25 -39 55 -49 49 -79 68 -79 48z"/>
<path d="M5466 3386 c-31 -10 -36 -14 -22 -19 36 -14 66 -8 66 13 0 11 -1 20
-2 19 -2 -1 -21 -7 -42 -13z"/>
<path d="M5345 3340 c-3 -5 3 -10 14 -10 12 0 21 5 21 10 0 6 -6 10 -14 10 -8
0 -18 -4 -21 -10z"/>
<path d="M5125 3250 c3 -5 12 -10 19 -10 7 0 33 -18 57 -41 46 -43 79 -65 79
-53 0 9 -63 68 -101 95 -28 20 -65 26 -54 9z"/>
<path d="M3500 3210 c0 -5 5 -10 11 -10 5 0 7 5 4 10 -3 6 -8 10 -11 10 -2 0
-4 -4 -4 -10z"/>
<path d="M3511 3164 c0 -11 3 -14 6 -6 3 7 2 16 -1 19 -3 4 -6 -2 -5 -13z"/>
<path d="M5580 3170 c-8 -5 -28 -12 -45 -16 l-30 -8 34 -4 c24 -2 40 2 55 17
21 21 13 27 -14 11z"/>
<path d="M5457 3122 c-25 -27 -21 -35 8 -16 25 16 33 34 17 34 -5 0 -16 -8
-25 -18z"/>
<path d="M5749 3164 c-13 -36 -11 -44 9 -37 17 6 42 31 42 44 0 4 -9 9 -21 12
-15 4 -22 -1 -30 -19z"/>
<path d="M3125 3100 c-15 -16 -15 -20 -3 -20 8 0 23 9 33 20 15 16 15 20 3 20
-8 0 -23 -9 -33 -20z"/>
<path d="M4490 3103 c0 -5 9 -18 20 -28 11 -10 20 -14 20 -8 0 5 -9 18 -20 28
-11 10 -20 14 -20 8z"/>
<path d="M4531 3034 c0 -11 3 -14 6 -6 3 7 2 16 -1 19 -3 4 -6 -2 -5 -13z"/>
<path d="M3285 3040 c-8 -13 15 -13 35 0 12 8 11 10 -7 10 -12 0 -25 -4 -28
-10z"/>
<path d="M5023 2974 c-8 -21 6 -33 46 -36 47 -4 50 18 5 37 -45 18 -43 18 -51
-1z"/>
<path d="M5690 2950 c0 -11 5 -20 10 -20 6 0 10 9 10 20 0 11 -4 20 -10 20 -5
0 -10 -9 -10 -20z"/>
<path d="M5602 2923 c-20 -8 -3 -23 28 -23 18 0 35 -8 47 -24 15 -21 27 -25
78 -26 80 -2 79 -2 64 16 -8 9 -21 13 -35 10 -14 -4 -37 2 -58 14 -20 11 -42
17 -49 14 -8 -3 -20 2 -27 11 -13 15 -25 17 -48 8z"/>
<path d="M5518 2908 c16 -8 28 -8 45 0 19 9 17 11 -23 11 -40 0 -42 -2 -22
-11z"/>
<path d="M5246 2895 c-3 -8 -1 -15 3 -15 5 0 11 7 15 15 3 8 1 15 -3 15 -5 0
-11 -7 -15 -15z"/>
<path d="M4420 2820 c0 -5 5 -10 10 -10 6 0 10 5 10 10 0 6 -4 10 -10 10 -5 0
-10 -4 -10 -10z"/>
<path d="M4776 2665 c-3 -8 -1 -15 4 -15 6 0 10 7 10 15 0 8 -2 15 -4 15 -2 0
-6 -7 -10 -15z"/>
<path d="M3120 2632 c0 -9 36 -44 58 -56 26 -15 10 10 -23 37 -19 15 -35 24
-35 19z"/>
<path d="M5530 2666 c0 -8 18 -29 40 -46 22 -18 48 -46 57 -63 8 -17 22 -37
29 -45 7 -7 18 -21 23 -30 8 -14 12 -15 22 -4 7 6 21 12 31 12 31 0 9 26 -33
40 -24 8 -49 26 -61 44 -48 71 -108 122 -108 92z"/>
<path d="M5685 2618 c-9 -23 -2 -61 13 -66 14 -4 15 31 2 63 -7 18 -9 18 -15
3z"/>
<path d="M5200 2655 c33 -19 49 -19 24 0 -10 8 -26 14 -34 14 -9 0 -4 -6 10
-14z"/>
<path d="M5385 2150 c-14 -16 -15 -20 -4 -20 16 0 39 19 39 32 0 14 -16 9 -35
-12z"/>
<path d="M3200 1940 c0 -19 3 -21 12 -12 9 9 9 15 0 24 -9 9 -12 7 -12 -12z"/>
<path d="M3191 1854 c0 -11 3 -14 6 -6 3 7 2 16 -1 19 -3 4 -6 -2 -5 -13z"/>
<path d="M3200 1796 c0 -9 5 -16 10 -16 6 0 10 4 10 9 0 6 -4 13 -10 16 -5 3
-10 -1 -10 -9z"/>
<path d="M5700 1731 c0 -8 79 -3 89 5 2 2 -17 4 -42 4 -26 0 -47 -4 -47 -9z"/>
<path d="M5580 1610 c0 -7 8 -24 18 -38 10 -15 23 -38 29 -52 6 -14 19 -42 28
-63 9 -21 23 -41 31 -44 9 -3 12 -13 9 -24 -5 -16 -3 -18 16 -10 33 12 32 23
-3 46 -17 11 -35 27 -39 35 -4 8 -22 46 -40 83 -32 66 -49 90 -49 67z"/>
<path d="M6370 8666 c0 -9 5 -16 10 -16 6 0 10 4 10 9 0 6 -4 13 -10 16 -5 3
-10 -1 -10 -9z"/>
<path d="M3029 2192 c-7 -26 -25 -52 -49 -71 -33 -26 -80 -103 -80 -131 0 -26
23 -5 44 43 24 51 86 127 105 127 18 0 24 41 8 57 -14 14 -17 11 -28 -25z"/>
</g>
</svg>
